<svg width="610" height="610" viewBox="0 0 610 610" fill="none" xmlns="http://www.w3.org/2000/svg">
<rect width="610" height="610" rx="80" fill="#111929"/>
<path d="M250.812 133C234.094 133 219.531 142.478 210.281 155.418C201.031 168.357 196.125 185.069 196.125 203.153C196.125 221.237 201.031 237.964 210.281 250.903C219.531 263.843 234.094 273.305 250.812 273.305C267.531 273.305 282.094 263.827 291.344 250.888C300.594 237.948 305.5 221.237 305.5 203.153C305.5 185.069 300.594 168.341 291.344 155.402C282.094 142.463 267.531 133 250.812 133ZM305.5 203.153C305.5 221.237 310.406 237.964 319.656 250.903C328.906 263.843 343.484 273.305 360.187 273.305C376.906 273.305 391.469 263.827 400.719 250.888C409.969 237.948 414.875 221.237 414.875 203.153C414.875 185.069 409.969 168.341 400.719 155.402C391.469 142.463 376.906 133 360.187 133C343.469 133 328.906 142.478 319.656 155.418C310.406 168.357 305.5 185.069 305.5 203.153ZM250.812 164.179C255.687 164.179 261.062 166.611 265.969 173.439C270.812 180.252 274.25 191.102 274.25 203.153C274.25 215.203 270.812 226.069 265.969 232.866C261.062 239.694 255.687 242.126 250.812 242.126C245.937 242.126 240.562 239.694 235.656 232.866C230.812 226.054 227.375 215.203 227.375 203.153C227.375 191.102 230.812 180.236 235.656 173.439C240.562 166.611 245.937 164.179 250.812 164.179ZM360.187 164.179C365.062 164.179 370.437 166.611 375.344 173.439C380.187 180.252 383.625 191.102 383.625 203.153C383.625 215.203 380.187 226.069 375.344 232.866C370.437 239.694 365.062 242.126 360.187 242.126C355.312 242.126 349.937 239.694 345.031 232.866C340.187 226.054 336.75 215.203 336.75 203.153C336.75 191.102 340.187 180.236 345.031 173.439C349.937 166.611 355.312 164.179 360.187 164.179ZM172.687 242.126C155.969 242.126 141.406 251.605 132.156 264.544C122.906 277.483 118 294.195 118 312.279C118 330.363 122.906 347.09 132.156 360.03C141.406 372.969 155.969 382.432 172.687 382.432C189.406 382.432 203.969 372.953 213.219 360.014C222.469 347.075 227.375 330.363 227.375 312.279C227.375 294.195 222.469 277.468 213.219 264.529C203.969 251.589 189.406 242.126 172.687 242.126ZM438.312 242.126C421.594 242.126 407.031 251.605 397.781 264.544C388.531 277.483 383.625 294.195 383.625 312.279C383.625 330.363 388.531 347.09 397.781 360.03C407.031 372.969 421.594 382.432 438.312 382.432C455.031 382.432 469.594 372.953 478.844 360.014C488.094 347.075 493 330.363 493 312.279C493 294.195 488.094 277.468 478.844 264.529C469.594 251.589 455.031 242.126 438.312 242.126ZM172.687 273.305C177.562 273.305 182.937 275.737 187.844 282.566C192.687 289.378 196.125 300.228 196.125 312.279C196.125 324.33 192.687 335.196 187.844 341.993C182.937 348.821 177.562 351.253 172.687 351.253C167.812 351.253 162.437 348.821 157.531 341.993C152.688 335.196 149.25 324.33 149.25 312.279C149.25 300.228 152.688 289.363 157.531 282.566C162.437 275.737 167.812 273.305 172.687 273.305ZM438.312 273.305C443.187 273.305 448.562 275.737 453.469 282.566C458.312 289.378 461.75 300.228 461.75 312.279C461.75 324.33 458.312 335.196 453.469 341.993C448.562 348.821 443.187 351.253 438.312 351.253C433.437 351.253 428.062 348.821 423.156 341.993C418.312 335.18 414.875 324.33 414.875 312.279C414.875 300.228 418.312 289.363 423.156 282.566C428.062 275.737 433.437 273.305 438.312 273.305ZM305.5 304.484C284.672 304.484 270.141 317.969 263 329.817C255.906 341.665 251.531 351.518 247.375 355.634C244.984 358.081 229.906 363.74 214.187 371.737C206.328 375.744 198.406 381.091 191.734 389.276C185.016 397.46 180.484 408.763 180.484 421.437C180.484 451.369 205.172 476 235.172 476C248.703 476 262.828 471.635 276.656 467.738C290.547 463.747 305.5 460.379 305.5 460.379C305.5 460.379 320.453 463.747 334.312 467.706C348.156 471.604 362.281 475.969 375.812 475.969C405.812 475.969 430.5 451.337 430.5 421.406C430.5 409.028 425.922 397.71 419.25 389.759C412.609 381.762 404.609 376.82 396.812 372.688C381.187 364.426 365.828 357.878 363.609 355.634C359.859 351.939 355.641 341.759 348.453 329.849C341.281 317.891 326.437 304.484 305.5 304.484ZM305.5 335.663C315.812 335.663 316.953 338.158 321.594 345.89C326.281 353.607 329.781 366.718 341.125 378.051C354.016 390.835 370.297 393.641 382.156 399.939C388.094 403.088 392.625 406.44 395.344 409.682C398.047 412.909 399.25 415.856 399.25 421.374C399.25 434.47 388.937 444.759 375.812 444.759C371.281 444.759 356.687 441.329 343.094 437.432C329.5 433.581 318.25 429.169 305.5 429.169C292.75 429.169 281.5 433.581 267.906 437.432C254.312 441.329 239.719 444.759 235.187 444.759C222.062 444.759 211.75 434.47 211.75 421.374C211.75 415.092 213.062 411.865 215.656 408.685C218.25 405.504 223.031 402.386 228.844 399.44C240.469 393.516 256.656 391.178 269.859 378.004C281.312 366.515 284.75 352.983 289.391 345.344C293.953 337.706 295.047 335.601 305.484 335.601L305.5 335.663Z" fill="white"/>
</svg>
