<svg width="160" height="23" viewBox="0 0 160 23" fill="none" xmlns="http://www.w3.org/2000/svg">
<path d="M35.4707 20C35.0964 20 34.9092 19.7941 34.9092 19.3823V4.51318C34.9092 4.1014 35.0964 3.89551 35.4707 3.89551H40.1875C42.7331 3.89551 44.4513 4.32601 45.3423 5.18701C46.2332 6.04053 46.6787 7.21598 46.6787 8.71338C46.6787 10.2108 46.2332 11.39 45.3423 12.251C44.4513 13.1045 42.7331 13.5312 40.1875 13.5312H37.0654V19.3823C37.0654 19.7941 36.8783 20 36.5039 20H35.4707ZM37.0654 11.6895H40.2212C41.8683 11.6895 42.9914 11.4574 43.5903 10.9932C44.1893 10.5215 44.4888 9.76156 44.4888 8.71338C44.4888 7.6652 44.1893 6.90902 43.5903 6.44482C42.9914 5.97314 41.8683 5.7373 40.2212 5.7373H37.0654V11.6895ZM48.2842 20C47.8949 20 47.7938 19.7529 47.981 19.2588L53.5738 4.58057C53.746 4.12386 53.993 3.89551 54.315 3.89551H55.8872C56.2092 3.89551 56.4563 4.12386 56.6285 4.58057L62.2212 19.2588C62.4084 19.7529 62.3073 20 61.918 20H60.7725C60.3757 20 60.1062 19.8166 59.9639 19.4497L58.5601 15.7324H51.6421L50.2383 19.4497C50.0961 19.8166 49.8265 20 49.4297 20H48.2842ZM52.3496 13.8906H57.8526L56.1343 9.39844C55.9771 8.97917 55.8199 8.51497 55.6626 8.00586C55.5129 7.49674 55.3332 6.77425 55.1236 5.83838H55.0787C54.869 6.77425 54.6856 7.49674 54.5284 8.00586C54.3786 8.51497 54.2251 8.97917 54.0679 9.39844L52.3496 13.8906ZM65.3878 20C65.0134 20 64.8263 19.7941 64.8263 19.3823V4.51318C64.8263 4.1014 65.0134 3.89551 65.3878 3.89551H66.8253C67.3494 3.89551 67.7237 4.08268 67.9483 4.45703L74.9786 16.2378H75.0235C75.0085 15.9383 75.0011 15.6388 75.0011 15.3394V4.51318C75.0011 4.1014 75.1882 3.89551 75.5626 3.89551H76.5958C76.9701 3.89551 77.1573 4.1014 77.1573 4.51318V19.3823C77.1573 19.7941 76.9701 20 76.5958 20H75.6075C75.0834 20 74.7091 19.8128 74.4845 19.4385L67.005 6.93896H66.96C66.975 7.23844 66.9825 7.53792 66.9825 7.8374V19.3823C66.9825 19.7941 66.7953 20 66.421 20H65.3878ZM80.5485 5.82715C80.1367 5.82715 79.9308 5.65869 79.9308 5.32178V4.40088C79.9308 4.06396 80.1367 3.89551 80.5485 3.89551H92.4303C92.8421 3.89551 93.048 4.06396 93.048 4.40088V5.32178C93.048 5.65869 92.8421 5.82715 92.4303 5.82715H87.5675V19.3823C87.5675 19.7941 87.3803 20 87.006 20H85.9728C85.5984 20 85.4113 19.7941 85.4113 19.3823V5.82715H80.5485ZM96.383 20C96.0086 20 95.8214 19.7941 95.8214 19.3823V4.51318C95.8214 4.1014 96.0086 3.89551 96.383 3.89551H97.4162C97.7905 3.89551 97.9777 4.1014 97.9777 4.51318V10.7012H105.817V4.51318C105.817 4.1014 106.004 3.89551 106.378 3.89551H107.411C107.786 3.89551 107.973 4.1014 107.973 4.51318V19.3823C107.973 19.7941 107.786 20 107.411 20H106.378C106.004 20 105.817 19.7941 105.817 19.3823V12.543H97.9777V19.3823C97.9777 19.7941 97.7905 20 97.4162 20H96.383ZM112.813 20C112.438 20 112.251 19.7941 112.251 19.3823V4.51318C112.251 4.1014 112.438 3.89551 112.813 3.89551H122.639C123.051 3.89551 123.257 4.06396 123.257 4.40088V5.23193C123.257 5.56885 123.051 5.7373 122.639 5.7373H114.407V10.7236H121.966C122.377 10.7236 122.583 10.8921 122.583 11.229V12.0601C122.583 12.397 122.377 12.5654 121.966 12.5654H114.407V18.1582H122.976C123.388 18.1582 123.594 18.3267 123.594 18.6636V19.4946C123.594 19.8315 123.388 20 122.976 20H112.813ZM127.535 20C127.161 20 126.974 19.7941 126.974 19.3823V4.51318C126.974 4.1014 127.161 3.89551 127.535 3.89551H132.96C135.123 3.89551 136.688 4.2998 137.654 5.1084C138.627 5.91699 139.114 6.98389 139.114 8.30908C139.114 9.47705 138.721 10.4578 137.935 11.2515C137.156 12.0451 136.044 12.5018 134.599 12.6216V12.644C135.363 13.2131 135.868 13.6473 136.115 13.9468C136.363 14.2388 136.64 14.6356 136.947 15.1372L139.485 19.2588C139.792 19.7529 139.724 20 139.282 20H138.002C137.65 20 137.388 19.854 137.216 19.562L134.88 15.5527C134.543 14.9762 134.06 14.411 133.431 13.8569C132.802 13.3029 132.02 13.0259 131.084 13.0259H129.13V19.3823C129.13 19.7941 128.943 20 128.569 20H127.535ZM129.13 11.1841H132.376C133.836 11.1841 134.959 10.9932 135.745 10.6113C136.531 10.222 136.924 9.40967 136.924 8.17432C136.924 7.23096 136.565 6.59082 135.846 6.25391C135.127 5.90951 134.15 5.7373 132.915 5.7373H129.13V11.1841ZM143.044 18.7871C142.647 18.4277 142.543 18.1133 142.73 17.8438L143.314 17.0015C143.516 16.7095 143.842 16.7319 144.291 17.0688C144.882 17.5106 145.496 17.8737 146.133 18.1582C146.776 18.4427 147.555 18.585 148.469 18.585C149.142 18.585 149.711 18.4839 150.176 18.2817C150.64 18.0796 151.01 17.7913 151.287 17.417C151.572 17.0352 151.714 16.5747 151.714 16.0356C151.714 15.6463 151.654 15.2869 151.534 14.9575C151.422 14.6206 151.239 14.3398 150.984 14.1152C150.73 13.8906 150.464 13.7147 150.187 13.5874C149.73 13.3778 149.045 13.1344 148.132 12.8574C147.226 12.5804 146.432 12.2809 145.751 11.959C145.077 11.637 144.538 11.2477 144.134 10.791C143.737 10.3343 143.471 9.86637 143.336 9.38721C143.209 8.90055 143.145 8.34652 143.145 7.7251C143.145 6.77425 143.422 5.95443 143.976 5.26562C144.53 4.57682 145.208 4.12012 146.009 3.89551C146.818 3.6709 147.637 3.55859 148.469 3.55859C149.419 3.55859 150.247 3.68213 150.95 3.9292C151.654 4.17627 152.283 4.49821 152.837 4.89502C153.227 5.17204 153.316 5.46403 153.107 5.771L152.534 6.59082C152.362 6.83789 152.025 6.78548 151.523 6.43359C151.141 6.16406 150.673 5.91325 150.119 5.68115C149.573 5.44157 149.03 5.32178 148.491 5.32178C147.802 5.32178 147.229 5.40413 146.773 5.56885C146.316 5.72607 145.957 5.99561 145.695 6.37744C145.433 6.75928 145.302 7.20101 145.302 7.70264C145.302 8.01709 145.331 8.30908 145.391 8.57861C145.451 8.84066 145.605 9.11019 145.852 9.38721C146.099 9.66423 146.398 9.8776 146.75 10.0273C147.222 10.2295 147.952 10.4691 148.94 10.7461C149.936 11.0156 150.804 11.3488 151.546 11.7456C152.234 12.1125 152.729 12.498 153.028 12.9023C153.335 13.2992 153.571 13.7334 153.736 14.2051C153.908 14.6693 153.994 15.1934 153.994 15.7773C153.994 16.8405 153.721 17.7277 153.174 18.439C152.628 19.1502 151.98 19.6444 151.231 19.9214C150.483 20.1984 149.543 20.3369 148.412 20.3369C147.057 20.3369 145.934 20.1797 145.043 19.8652C144.152 19.5508 143.486 19.1914 143.044 18.7871Z" fill="white"/>
<path d="M8.85417 0C7.73958 0 6.76875 0.635579 6.15208 1.50323C5.53542 2.37088 5.20833 3.4915 5.20833 4.70412C5.20833 5.91673 5.53542 7.0384 6.15208 7.90605C6.76875 8.7737 7.73958 9.40823 8.85417 9.40823C9.96875 9.40823 10.9396 8.77266 11.5562 7.90501C12.1729 7.03736 12.5 5.91673 12.5 4.70412C12.5 3.4915 12.1729 2.36983 11.5562 1.50218C10.9396 0.634533 9.96875 0 8.85417 0ZM12.5 4.70412C12.5 5.91673 12.8271 7.0384 13.4437 7.90605C14.0604 8.7737 15.0323 9.40823 16.1458 9.40823C17.2604 9.40823 18.2313 8.77266 18.8479 7.90501C19.4646 7.03736 19.7917 5.91673 19.7917 4.70412C19.7917 3.4915 19.4646 2.36983 18.8479 1.50218C18.2313 0.634533 17.2604 0 16.1458 0C15.0312 0 14.0604 0.635579 13.4437 1.50323C12.8271 2.37088 12.5 3.4915 12.5 4.70412ZM8.85417 2.09072C9.17917 2.09072 9.5375 2.25379 9.86458 2.71166C10.1875 3.16848 10.4167 3.89605 10.4167 4.70412C10.4167 5.51218 10.1875 6.2408 9.86458 6.69657C9.5375 7.15444 9.17917 7.31752 8.85417 7.31752C8.52917 7.31752 8.17083 7.15444 7.84375 6.69657C7.52083 6.23975 7.29167 5.51218 7.29167 4.70412C7.29167 3.89605 7.52083 3.16744 7.84375 2.71166C8.17083 2.25379 8.52917 2.09072 8.85417 2.09072ZM16.1458 2.09072C16.4708 2.09072 16.8292 2.25379 17.1562 2.71166C17.4792 3.16848 17.7083 3.89605 17.7083 4.70412C17.7083 5.51218 17.4792 6.2408 17.1562 6.69657C16.8292 7.15444 16.4708 7.31752 16.1458 7.31752C15.8208 7.31752 15.4625 7.15444 15.1354 6.69657C14.8125 6.23975 14.5833 5.51218 14.5833 4.70412C14.5833 3.89605 14.8125 3.16744 15.1354 2.71166C15.4625 2.25379 15.8208 2.09072 16.1458 2.09072ZM3.64583 7.31752C2.53125 7.31752 1.56042 7.95309 0.94375 8.82074C0.327083 9.68839 0 10.809 0 12.0216C0 13.2343 0.327083 14.3559 0.94375 15.2236C1.56042 16.0912 2.53125 16.7258 3.64583 16.7258C4.76042 16.7258 5.73125 16.0902 6.34792 15.2225C6.96458 14.3549 7.29167 13.2343 7.29167 12.0216C7.29167 10.809 6.96458 9.68735 6.34792 8.8197C5.73125 7.95205 4.76042 7.31752 3.64583 7.31752ZM21.3542 7.31752C20.2396 7.31752 19.2688 7.95309 18.6521 8.82074C18.0354 9.68839 17.7083 10.809 17.7083 12.0216C17.7083 13.2343 18.0354 14.3559 18.6521 15.2236C19.2688 16.0912 20.2396 16.7258 21.3542 16.7258C22.4688 16.7258 23.4396 16.0902 24.0562 15.2225C24.6729 14.3549 25 13.2343 25 12.0216C25 10.809 24.6729 9.68735 24.0562 8.8197C23.4396 7.95205 22.4688 7.31752 21.3542 7.31752ZM3.64583 9.40823C3.97083 9.40823 4.32917 9.57131 4.65625 10.0292C4.97917 10.486 5.20833 11.2136 5.20833 12.0216C5.20833 12.8297 4.97917 13.5583 4.65625 14.0141C4.32917 14.472 3.97083 14.635 3.64583 14.635C3.32083 14.635 2.9625 14.472 2.63542 14.0141C2.3125 13.5583 2.08333 12.8297 2.08333 12.0216C2.08333 11.2136 2.3125 10.485 2.63542 10.0292C2.9625 9.57131 3.32083 9.40823 3.64583 9.40823ZM21.3542 9.40823C21.6792 9.40823 22.0375 9.57131 22.3646 10.0292C22.6875 10.486 22.9167 11.2136 22.9167 12.0216C22.9167 12.8297 22.6875 13.5583 22.3646 14.0141C22.0375 14.472 21.6792 14.635 21.3542 14.635C21.0292 14.635 20.6708 14.472 20.3438 14.0141C20.0208 13.5573 19.7917 12.8297 19.7917 12.0216C19.7917 11.2136 20.0208 10.485 20.3438 10.0292C20.6708 9.57131 21.0292 9.40823 21.3542 9.40823ZM12.5 11.499C11.1115 11.499 10.1427 12.4032 9.66667 13.1977C9.19375 13.9921 8.90208 14.6528 8.625 14.9288C8.46562 15.0929 7.46042 15.4724 6.4125 16.0086C5.88854 16.2773 5.36042 16.6358 4.91562 17.1847C4.46771 17.7335 4.16563 18.4914 4.16563 19.3412C4.16563 21.3483 5.81146 23 7.81146 23C8.71354 23 9.65521 22.7073 10.5771 22.446C11.5031 22.1783 12.5 21.9525 12.5 21.9525C12.5 21.9525 13.4969 22.1783 14.4208 22.4439C15.3437 22.7052 16.2854 22.9979 17.1875 22.9979C19.1875 22.9979 20.8333 21.3462 20.8333 19.3391C20.8333 18.5091 20.5281 17.7502 20.0833 17.2171C19.6406 16.6808 19.1073 16.3494 18.5875 16.0724C17.5458 15.5184 16.5219 15.0793 16.374 14.9288C16.124 14.681 15.8427 13.9984 15.3635 13.1998C14.8854 12.398 13.8958 11.499 12.5 11.499ZM12.5 13.5897C13.1875 13.5897 13.2635 13.7569 13.5729 14.2754C13.8854 14.7929 14.1188 15.672 14.875 16.432C15.7344 17.2892 16.8198 17.4774 17.6104 17.8997C18.0062 18.1109 18.3083 18.3356 18.4896 18.553C18.6698 18.7694 18.75 18.967 18.75 19.3371C18.75 20.2152 18.0625 20.9051 17.1875 20.9051C16.8854 20.9051 15.9125 20.6751 15.0062 20.4138C14.1 20.1556 13.35 19.8597 12.5 19.8597C11.65 19.8597 10.9 20.1556 9.99375 20.4138C9.0875 20.6751 8.11458 20.9051 7.8125 20.9051C6.9375 20.9051 6.25 20.2152 6.25 19.3371C6.25 18.9158 6.3375 18.6994 6.51042 18.4861C6.68333 18.2729 7.00208 18.0638 7.38958 17.8662C8.16458 17.469 9.24375 17.3122 10.124 16.4289C10.8875 15.6584 11.1167 14.7511 11.426 14.2388C11.7302 13.7266 11.8031 13.5855 12.499 13.5855L12.5 13.5897Z" fill="white"/>
</svg>
